<svg xmlns="http://www.w3.org/2000/svg" viewBox="0 0 333.22 280.72"><defs><style>.cls-1{fill:#fff;}</style></defs><title>Ресурс 1</title><g id="Слой_2" data-name="Слой 2"><g id="Capa_1" data-name="Capa 1"><path class="cls-1" d="M311.83,1.1,7.08,119.85a11.11,11.11,0,0,0,.89,21l77.44,22.87,28.9,91.71a13.3,13.3,0,0,0,22.18,5.31l40-40.88,78.56,57.67a16.39,16.39,0,0,0,25.75-9.86l52-248.76A15.68,15.68,0,0,0,311.83,1.1ZM273.62,56.3,132.07,181.48a7.6,7.6,0,0,0-2.52,4.85l-5.45,48.45a1.47,1.47,0,0,1-2.86.27L98.81,162.79a7.6,7.6,0,0,1,3.26-8.72L269.23,50.4A3.69,3.69,0,0,1,273.62,56.3Z"/></g></g></svg>